<svg width="42" height="42" viewBox="0 0 42 42" fill="none" xmlns="http://www.w3.org/2000/svg">
<path d="M35 31.5H33.25V29.75C33.25 29.2859 33.0656 28.8408 32.7374 28.5126C32.4092 28.1844 31.9641 28 31.5 28C31.0359 28 30.5908 28.1844 30.2626 28.5126C29.9344 28.8408 29.75 29.2859 29.75 29.75V31.5H28C27.5359 31.5 27.0908 31.6844 26.7626 32.0126C26.4344 32.3408 26.25 32.7859 26.25 33.25C26.25 33.7141 26.4344 34.1592 26.7626 34.4874C27.0908 34.8156 27.5359 35 28 35H29.75V36.75C29.75 37.2141 29.9344 37.6592 30.2626 37.9874C30.5908 38.3156 31.0359 38.5 31.5 38.5C31.9641 38.5 32.4092 38.3156 32.7374 37.9874C33.0656 37.6592 33.25 37.2141 33.25 36.75V35H35C35.4641 35 35.9092 34.8156 36.2374 34.4874C36.5656 34.1592 36.75 33.7141 36.75 33.25C36.75 32.7859 36.5656 32.3408 36.2374 32.0126C35.9092 31.6844 35.4641 31.5 35 31.5ZM22.75 35H10.5C10.0359 35 9.59075 34.8156 9.26256 34.4874C8.93437 34.1592 8.75 33.7141 8.75 33.25V8.75C8.75 8.28587 8.93437 7.84075 9.26256 7.51256C9.59075 7.18437 10.0359 7 10.5 7H19.25V12.25C19.25 13.6424 19.8031 14.9777 20.7877 15.9623C21.7723 16.9469 23.1076 17.5 24.5 17.5H29.75V22.75C29.75 23.2141 29.9344 23.6592 30.2626 23.9874C30.5908 24.3156 31.0359 24.5 31.5 24.5C31.9641 24.5 32.4092 24.3156 32.7374 23.9874C33.0656 23.6592 33.25 23.2141 33.25 22.75V15.75C33.25 15.75 33.25 15.75 33.25 15.645C33.2318 15.4842 33.1966 15.3259 33.145 15.1725V15.015C33.0609 14.8351 32.9486 14.6697 32.8125 14.525L22.3125 4.025C22.1678 3.88888 22.0024 3.77664 21.8225 3.6925C21.7646 3.68237 21.7054 3.68237 21.6475 3.6925C21.4773 3.60151 21.2945 3.53661 21.105 3.5H10.5C9.10761 3.5 7.77226 4.05312 6.78769 5.03769C5.80312 6.02226 5.25 7.35761 5.25 8.75V33.25C5.25 34.6424 5.80312 35.9777 6.78769 36.9623C7.77226 37.9469 9.10761 38.5 10.5 38.5H22.75C23.2141 38.5 23.6592 38.3156 23.9874 37.9874C24.3156 37.6592 24.5 37.2141 24.5 36.75C24.5 36.2859 24.3156 35.8408 23.9874 35.5126C23.6592 35.1844 23.2141 35 22.75 35ZM22.75 9.4675L27.2825 14H24.5C24.0359 14 23.5908 13.8156 23.2626 13.4874C22.9344 13.1592 22.75 12.7141 22.75 12.25V9.4675ZM14 14C13.5359 14 13.0908 14.1844 12.7626 14.5126C12.4344 14.8408 12.25 15.2859 12.25 15.75C12.25 16.2141 12.4344 16.6592 12.7626 16.9874C13.0908 17.3156 13.5359 17.5 14 17.5H15.75C16.2141 17.5 16.6592 17.3156 16.9874 16.9874C17.3156 16.6592 17.5 16.2141 17.5 15.75C17.5 15.2859 17.3156 14.8408 16.9874 14.5126C16.6592 14.1844 16.2141 14 15.75 14H14ZM22.75 28H14C13.5359 28 13.0908 28.1844 12.7626 28.5126C12.4344 28.8408 12.25 29.2859 12.25 29.75C12.25 30.2141 12.4344 30.6592 12.7626 30.9874C13.0908 31.3156 13.5359 31.5 14 31.5H22.75C23.2141 31.5 23.6592 31.3156 23.9874 30.9874C24.3156 30.6592 24.5 30.2141 24.5 29.75C24.5 29.2859 24.3156 28.8408 23.9874 28.5126C23.6592 28.1844 23.2141 28 22.75 28ZM24.5 21H14C13.5359 21 13.0908 21.1844 12.7626 21.5126C12.4344 21.8408 12.25 22.2859 12.25 22.75C12.25 23.2141 12.4344 23.6592 12.7626 23.9874C13.0908 24.3156 13.5359 24.5 14 24.5H24.5C24.9641 24.5 25.4092 24.3156 25.7374 23.9874C26.0656 23.6592 26.25 23.2141 26.25 22.75C26.25 22.2859 26.0656 21.8408 25.7374 21.5126C25.4092 21.1844 24.9641 21 24.5 21Z" fill="white"/>
</svg>
