<svg width="31" height="31" viewBox="0 0 31 31" fill="none" xmlns="http://www.w3.org/2000/svg">
<path d="M15.4998 0.916992C12.6155 0.916992 9.79599 1.77229 7.39778 3.37473C4.99956 4.97716 3.13038 7.25477 2.0266 9.91953C0.922823 12.5843 0.634024 15.5165 1.19673 18.3454C1.75943 21.1743 3.14835 23.7728 5.18787 25.8123C7.22739 27.8518 9.82589 29.2407 12.6548 29.8034C15.4837 30.3661 18.4159 30.0773 21.0806 28.9736C23.7454 27.8698 26.023 26.0006 27.6254 23.6024C29.2279 21.2042 30.0832 18.3846 30.0832 15.5003C30.0832 13.5852 29.706 11.6889 28.9731 9.91953C28.2402 8.15019 27.166 6.54254 25.8118 5.18835C24.4576 3.83416 22.85 2.75996 21.0806 2.02708C19.3113 1.2942 17.415 0.916992 15.4998 0.916992ZM15.4998 27.167C13.1924 27.167 10.9368 26.4828 9.01819 25.2008C7.09962 23.9189 5.60427 22.0968 4.72125 19.965C3.83823 17.8332 3.60719 15.4874 4.05735 13.2243C4.50751 10.9612 5.61865 8.88236 7.25026 7.25075C8.88188 5.61913 10.9607 4.50799 13.2238 4.05783C15.4869 3.60767 17.8327 3.83871 19.9645 4.72173C22.0963 5.60475 23.9184 7.1001 25.2003 9.01867C26.4823 10.9372 27.1665 13.1929 27.1665 15.5003C27.1665 18.5945 25.9373 21.562 23.7494 23.7499C21.5615 25.9378 18.594 27.167 15.4998 27.167ZM21.3332 14.042H9.66651C9.27974 14.042 8.9088 14.1956 8.63531 14.4691C8.36182 14.7426 8.20818 15.1136 8.20818 15.5003C8.20818 15.8871 8.36182 16.258 8.63531 16.5315C8.9088 16.805 9.27974 16.9587 9.66651 16.9587H21.3332C21.7199 16.9587 22.0909 16.805 22.3644 16.5315C22.6379 16.258 22.7915 15.8871 22.7915 15.5003C22.7915 15.1136 22.6379 14.7426 22.3644 14.4691C22.0909 14.1956 21.7199 14.042 21.3332 14.042Z" fill="#FF572A"/>
</svg>
