<svg width="18" height="15" viewBox="0 0 18 15" fill="none" xmlns="http://www.w3.org/2000/svg">
<path d="M14.6938 4.50616C14.6357 4.44758 14.5666 4.40109 14.4904 4.36936C14.4142 4.33763 14.3325 4.32129 14.25 4.32129C14.1675 4.32129 14.0858 4.33763 14.0097 4.36936C13.9335 4.40109 13.8644 4.44758 13.8063 4.50616L9.15003 9.16866L7.19378 7.20616C7.13345 7.14789 7.06224 7.10207 6.98421 7.07132C6.90617 7.04056 6.82284 7.02548 6.73898 7.02693C6.65512 7.02838 6.57236 7.04634 6.49544 7.07977C6.41851 7.1132 6.34893 7.16146 6.29065 7.22179C6.23238 7.28211 6.18656 7.35333 6.15581 7.43136C6.12505 7.5094 6.10997 7.59272 6.11142 7.67659C6.11287 7.76045 6.13083 7.84321 6.16426 7.92013C6.1977 7.99705 6.24595 8.06664 6.30628 8.12491L8.70628 10.5249C8.76438 10.5835 8.83351 10.63 8.90967 10.6617C8.98583 10.6935 9.06752 10.7098 9.15003 10.7098C9.23254 10.7098 9.31423 10.6935 9.39039 10.6617C9.46655 10.63 9.53568 10.5835 9.59378 10.5249L14.6938 5.42491C14.7572 5.36639 14.8078 5.29535 14.8425 5.21629C14.8771 5.13723 14.895 5.05185 14.895 4.96554C14.895 4.87922 14.8771 4.79385 14.8425 4.71478C14.8078 4.63572 14.7572 4.56469 14.6938 4.50616V4.50616Z" fill="#2C6BED"/>
<path d="M11.6938 4.50616C11.6357 4.44758 11.5666 4.40109 11.4904 4.36936C11.4142 4.33763 11.3325 4.32129 11.25 4.32129C11.1675 4.32129 11.0858 4.33763 11.0097 4.36936C10.9335 4.40109 10.8644 4.44758 10.8063 4.50616L6.15003 9.16866L4.19378 7.20616C4.13345 7.14789 4.06224 7.10207 3.98421 7.07132C3.90617 7.04056 3.82284 7.02548 3.73898 7.02693C3.65512 7.02838 3.57236 7.04634 3.49544 7.07977C3.41851 7.1132 3.34893 7.16146 3.29065 7.22179C3.23238 7.28211 3.18656 7.35333 3.15581 7.43136C3.12505 7.5094 3.10997 7.59272 3.11142 7.67659C3.11287 7.76045 3.13083 7.84321 3.16426 7.92013C3.1977 7.99705 3.24595 8.06664 3.30628 8.12491L5.70628 10.5249C5.76438 10.5835 5.83351 10.63 5.90967 10.6617C5.98583 10.6935 6.06752 10.7098 6.15003 10.7098C6.23254 10.7098 6.31423 10.6935 6.39039 10.6617C6.46655 10.63 6.53568 10.5835 6.59378 10.5249L11.6938 5.42491C11.7572 5.36639 11.8078 5.29535 11.8425 5.21629C11.8771 5.13723 11.895 5.05185 11.895 4.96554C11.895 4.87922 11.8771 4.79385 11.8425 4.71478C11.8078 4.63572 11.7572 4.56469 11.6938 4.50616V4.50616Z" fill="#2C6BED"/>
</svg>
