<svg width="33" height="41" viewBox="0 0 33 41" fill="none" xmlns="http://www.w3.org/2000/svg">
<path d="M32.623 14.4248C32.6023 14.2423 32.5623 14.0624 32.5038 13.8883V13.7094C32.4082 13.5051 32.2808 13.3173 32.1262 13.153L20.2031 1.22994C20.0389 1.07537 19.851 0.947924 19.6467 0.852379H19.4679L18.832 0.633789H6.78966C5.20857 0.633789 3.69222 1.26188 2.57422 2.37988C1.45621 3.49789 0.828125 5.01423 0.828125 6.59533V34.4158C0.828125 35.9969 1.45621 37.5133 2.57422 38.6313C3.69222 39.7493 5.20857 40.3774 6.78966 40.3774H26.6615C28.2426 40.3774 29.7589 39.7493 30.8769 38.6313C31.9949 37.5133 32.623 35.9969 32.623 34.4158V14.544C32.623 14.544 32.623 14.544 32.623 14.4248ZM20.6999 7.41007L25.8467 12.5569H20.6999V7.41007ZM28.6486 34.4158C28.6486 34.9429 28.4393 35.4483 28.0666 35.821C27.6939 36.1937 27.1885 36.403 26.6615 36.403H6.78966C6.26263 36.403 5.75718 36.1937 5.38452 35.821C5.01185 35.4483 4.80248 34.9429 4.80248 34.4158V6.59533C4.80248 6.06829 5.01185 5.56285 5.38452 5.19018C5.75718 4.81751 6.26263 4.60815 6.78966 4.60815H16.7256V14.544C16.7256 15.0711 16.9349 15.5765 17.3076 15.9492C17.6803 16.3219 18.1857 16.5312 18.7127 16.5312H28.6486V34.4158Z" fill="#2C6BED"/>
</svg>
