<svg width="27" height="27" viewBox="0 0 27 27" fill="none" xmlns="http://www.w3.org/2000/svg">
<path d="M3.29167 7.66667C3.29167 8.05344 3.44531 8.42437 3.7188 8.69786C3.99229 8.97135 4.36323 9.125 4.75 9.125C5.13677 9.125 5.50771 8.97135 5.7812 8.69786C6.05469 8.42437 6.20833 8.05344 6.20833 7.66667V6.20833H7.66667C8.05344 6.20833 8.42437 6.05469 8.69786 5.7812C8.97135 5.50771 9.125 5.13677 9.125 4.75C9.125 4.36323 8.97135 3.99229 8.69786 3.7188C8.42437 3.44531 8.05344 3.29167 7.66667 3.29167H6.20833V1.83333C6.20833 1.44656 6.05469 1.07563 5.7812 0.802136C5.50771 0.528645 5.13677 0.375 4.75 0.375C4.36323 0.375 3.99229 0.528645 3.7188 0.802136C3.44531 1.07563 3.29167 1.44656 3.29167 1.83333V3.29167H1.83333C1.44656 3.29167 1.07563 3.44531 0.802136 3.7188C0.528645 3.99229 0.375 4.36323 0.375 4.75C0.375 5.13677 0.528645 5.50771 0.802136 5.7812C1.07563 6.05469 1.44656 6.20833 1.83333 6.20833H3.29167V7.66667ZM22.25 3.29167H13.5C13.1132 3.29167 12.7423 3.44531 12.4688 3.7188C12.1953 3.99229 12.0417 4.36323 12.0417 4.75C12.0417 5.13677 12.1953 5.50771 12.4688 5.7812C12.7423 6.05469 13.1132 6.20833 13.5 6.20833H22.25C22.6368 6.20833 23.0077 6.36198 23.2812 6.63547C23.5547 6.90896 23.7083 7.27989 23.7083 7.66667V21.8417L21.4187 19.7271C21.1498 19.4753 20.7955 19.3346 20.4271 19.3333H7.66667C7.27989 19.3333 6.90896 19.1797 6.63547 18.9062C6.36198 18.6327 6.20833 18.2618 6.20833 17.875V13.5C6.20833 13.1132 6.05469 12.7423 5.7812 12.4688C5.50771 12.1953 5.13677 12.0417 4.75 12.0417C4.36323 12.0417 3.99229 12.1953 3.7188 12.4688C3.44531 12.7423 3.29167 13.1132 3.29167 13.5V17.875C3.29167 19.0353 3.7526 20.1481 4.57307 20.9686C5.39355 21.7891 6.50634 22.25 7.66667 22.25H19.8583L24.2333 26.2313C24.4874 26.4698 24.8185 26.6095 25.1667 26.625C25.3667 26.6228 25.5645 26.5833 25.75 26.5083C26.0109 26.3945 26.2327 26.2068 26.3882 25.9684C26.5437 25.73 26.626 25.4513 26.625 25.1667V7.66667C26.625 6.50634 26.1641 5.39355 25.3436 4.57307C24.5231 3.7526 23.4103 3.29167 22.25 3.29167Z" fill="#2C6BED"/>
</svg>
