<svg width="41" height="33" viewBox="0 0 41 33" fill="none" xmlns="http://www.w3.org/2000/svg">
<path d="M34.6356 0.927734H6.81505C5.23396 0.927734 3.71762 1.55582 2.59961 2.67383C1.4816 3.79183 0.853516 5.30817 0.853516 6.88927V26.7611C0.853516 28.3422 1.4816 29.8585 2.59961 30.9765C3.71762 32.0945 5.23396 32.7226 6.81505 32.7226H34.6356C36.2167 32.7226 37.733 32.0945 38.851 30.9765C39.969 29.8585 40.5971 28.3422 40.5971 26.7611V6.88927C40.5971 5.30817 39.969 3.79183 38.851 2.67383C37.733 1.55582 36.2167 0.927734 34.6356 0.927734ZM6.81505 28.7482C6.28802 28.7482 5.78257 28.5389 5.40991 28.1662C5.03724 27.7935 4.82787 27.2881 4.82787 26.7611V21.9521L11.3856 15.4143C11.757 15.0502 12.2564 14.8462 12.7766 14.8462C13.2967 14.8462 13.7962 15.0502 14.1676 15.4143L27.5016 28.7482H6.81505ZM36.6227 26.7611C36.6227 27.2881 36.4134 27.7935 36.0407 28.1662C35.668 28.5389 35.1626 28.7482 34.6356 28.7482H33.1054L25.5343 21.1374L27.283 19.3886C27.6545 19.0245 28.1539 18.8206 28.674 18.8206C29.1942 18.8206 29.6936 19.0245 30.0651 19.3886L36.6227 25.9265V26.7611ZM36.6227 20.3226L32.8868 16.6066C31.7543 15.5185 30.2446 14.9108 28.674 14.9108C27.1034 14.9108 25.5938 15.5185 24.4612 16.6066L22.7125 18.3553L16.9894 12.6322C15.8568 11.5441 14.3472 10.9364 12.7766 10.9364C11.206 10.9364 9.69635 11.5441 8.56377 12.6322L4.82787 16.3482V6.88927C4.82787 6.36224 5.03724 5.85679 5.40991 5.48413C5.78257 5.11146 6.28802 4.90209 6.81505 4.90209H34.6356C35.1626 4.90209 35.668 5.11146 36.0407 5.48413C36.4134 5.85679 36.6227 6.36224 36.6227 6.88927V20.3226Z" fill="#2C6BED"/>
</svg>
