<svg width="31" height="31" viewBox="0 0 31 31" fill="none" xmlns="http://www.w3.org/2000/svg">
<path d="M19.5978 15.9087C20.5208 14.9173 21.0409 13.6173 21.0561 12.2628C21.0561 10.8008 20.4753 9.39869 19.4415 8.3649C18.4077 7.3311 17.0056 6.75033 15.5436 6.75033C14.0816 6.75033 12.6795 7.3311 11.6457 8.3649C10.6119 9.39869 10.0311 10.8008 10.0311 12.2628C10.0463 13.6173 10.5663 14.9173 11.4894 15.9087C10.2041 16.5487 9.09807 17.4981 8.27075 18.6717C7.44344 19.8452 6.92079 21.206 6.74984 22.6316C6.70729 23.0183 6.82013 23.4062 7.06354 23.7098C7.30695 24.0133 7.66098 24.2078 8.04775 24.2503C8.43453 24.2929 8.82236 24.18 9.12594 23.9366C9.42951 23.6932 9.62396 23.3392 9.6665 22.9524C9.84053 21.5395 10.5252 20.239 11.5916 19.2959C12.658 18.3528 14.0325 17.8322 15.4561 17.8322C16.8797 17.8322 18.2542 18.3528 19.3205 19.2959C20.3869 20.239 21.0716 21.5395 21.2457 22.9524C21.2862 23.3263 21.4697 23.6702 21.7578 23.912C22.0458 24.1539 22.4162 24.2751 22.7915 24.2503H22.9519C23.3342 24.2063 23.6836 24.013 23.924 23.7126C24.1644 23.4121 24.2763 23.0288 24.2353 22.6462C24.077 21.228 23.5708 19.871 22.7618 18.6956C21.9527 17.5202 20.8659 16.5629 19.5978 15.9087ZM15.4998 14.8587C14.9864 14.8587 14.4846 14.7064 14.0577 14.4212C13.6308 14.1359 13.2981 13.7305 13.1016 13.2562C12.9051 12.7819 12.8537 12.2599 12.9539 11.7564C13.054 11.2529 13.3013 10.7903 13.6643 10.4273C14.0273 10.0643 14.4899 9.81703 14.9934 9.71687C15.497 9.61671 16.0189 9.66811 16.4932 9.86459C16.9675 10.0611 17.373 10.3938 17.6582 10.8207C17.9434 11.2475 18.0957 11.7494 18.0957 12.2628C18.0957 12.9513 17.8222 13.6115 17.3354 14.0984C16.8486 14.5852 16.1883 14.8587 15.4998 14.8587ZM25.7082 0.916992H5.2915C4.13118 0.916992 3.01838 1.37793 2.19791 2.1984C1.37744 3.01887 0.916504 4.13167 0.916504 5.29199V25.7087C0.916504 26.869 1.37744 27.9818 2.19791 28.8022C3.01838 29.6227 4.13118 30.0837 5.2915 30.0837H25.7082C26.8685 30.0837 27.9813 29.6227 28.8018 28.8022C29.6222 27.9818 30.0832 26.869 30.0832 25.7087V5.29199C30.0832 4.13167 29.6222 3.01887 28.8018 2.1984C27.9813 1.37793 26.8685 0.916992 25.7082 0.916992ZM27.1665 25.7087C27.1665 26.0954 27.0129 26.4664 26.7394 26.7399C26.4659 27.0133 26.0949 27.167 25.7082 27.167H5.2915C4.90473 27.167 4.5338 27.0133 4.26031 26.7399C3.98682 26.4664 3.83317 26.0954 3.83317 25.7087V5.29199C3.83317 4.90522 3.98682 4.53429 4.26031 4.26079C4.5338 3.9873 4.90473 3.83366 5.2915 3.83366H25.7082C26.0949 3.83366 26.4659 3.9873 26.7394 4.26079C27.0129 4.53429 27.1665 4.90522 27.1665 5.29199V25.7087Z" fill="#2C6BED"/>
</svg>
